<?xml version="1.0" encoding="iso-8859-1"?>
<!-- Generator: Adobe Illustrator 19.0.0, SVG Export Plug-In . SVG Version: 6.00 Build 0)  -->
<svg version="1.1" id="Layer_1" xmlns="http://www.w3.org/2000/svg" xmlns:xlink="http://www.w3.org/1999/xlink" x="0px" y="0px"
	 viewBox="0 0 512 512" style="enable-background:new 0 0 512 512;" xml:space="preserve">
<rect x="272.003" y="72.002" style="fill:#BE1622;" width="207.998" height="320.005"/>
<g>
	<rect x="304.001" y="104" style="fill:#FFFFFF;" width="144.004" height="64"/>
	<rect x="304.001" y="200.002" style="fill:#FFFFFF;" width="144.004" height="64"/>
	<rect x="304.001" y="296.005" style="fill:#FFFFFF;" width="144.004" height="64"/>
</g>
<rect x="272.003" y="391.996" style="fill:#FAC15C;" width="207.998" height="111.996"/>
<rect x="32" y="376.003" style="fill:#BE1622;" width="239.996" height="128"/>
<g>
	<rect x="344.005" y="415.997" style="fill:#CBBBA0;" width="72.002" height="87.995"/>
	<rect x="111.996" y="408" style="fill:#CBBBA0;" width="79.999" height="96.002"/>
</g>
<rect x="32" y="8" style="fill:#FAC15C;" width="239.996" height="367.995"/>
<g>
	<rect x="72.002" y="55.998" style="fill:#FFFFFF;" width="159.997" height="64"/>
	<rect x="72.002" y="159.998" style="fill:#FFFFFF;" width="159.997" height="64"/>
	<rect x="72.002" y="263.997" style="fill:#FFFFFF;" width="159.997" height="64"/>
</g>
<g>
	<path style="fill:#1D1D1B;" d="M239.871,127.871H64.129V48.13H239.87v79.741H239.871z M79.87,112.13h144.258V63.871H79.87V112.13z"
		/>
	<path style="fill:#1D1D1B;" d="M239.871,231.871H64.129V152.13H239.87v79.741H239.871z M79.87,216.13h144.258v-48.258H79.87V216.13
		z"/>
	<path style="fill:#1D1D1B;" d="M239.871,335.872H64.129V256.13H239.87v79.741H239.871z M79.87,320.13h144.258v-48.258H79.87V320.13
		z"/>
	<rect x="128.126" y="448.005" style="fill:#1D1D1B;" width="15.742" height="16"/>
	<rect x="359.558" y="447.722" style="fill:#1D1D1B;" width="15.742" height="16"/>
	
		<rect x="96.127" y="284.688" transform="matrix(-0.7071 -0.7071 0.7071 -0.7071 -31.7691 578.8427)" style="fill:#1D1D1B;" width="15.741" height="22.627"/>
	
		<rect x="144.131" y="284.687" transform="matrix(-0.7071 -0.7071 0.7071 -0.7071 50.1792 612.7863)" style="fill:#1D1D1B;" width="15.741" height="22.627"/>
	
		<rect x="192.125" y="284.685" transform="matrix(-0.7071 -0.7071 0.7071 -0.7071 132.1111 646.7188)" style="fill:#1D1D1B;" width="15.741" height="22.627"/>
	<path style="fill:#1D1D1B;" d="M455.871,367.871H296.129V288.13H455.87v79.741H455.871z M311.87,352.129h128.258v-48.258H311.87
		V352.129z"/>
	
		<rect x="328.125" y="316.685" transform="matrix(-0.7071 -0.7071 0.7071 -0.7071 341.6497 797.5133)" style="fill:#1D1D1B;" width="15.741" height="22.628"/>
	
		<rect x="368.134" y="316.69" transform="matrix(-0.7071 -0.7071 0.7071 -0.7071 409.9466 825.8126)" style="fill:#1D1D1B;" width="15.741" height="22.628"/>
	<path style="fill:#1D1D1B;" d="M455.871,271.871H296.129v-79.741H455.87v79.741H455.871z M311.87,256.129h128.258v-48.258H311.87
		V256.129z"/>
	<path style="fill:#1D1D1B;" d="M455.871,175.871H296.129V96.13H455.87v79.741H455.871z M311.87,160.13h128.258v-48.258H311.87
		V160.13z"/>
	
		<rect x="408.125" y="316.677" transform="matrix(-0.7071 -0.7071 0.7071 -0.7071 478.2255 854.0685)" style="fill:#1D1D1B;" width="15.741" height="22.628"/>
	
		<rect x="328.13" y="220.677" transform="matrix(-0.7071 -0.7071 0.7071 -0.7071 409.5476 633.6212)" style="fill:#1D1D1B;" width="15.741" height="22.628"/>
	
		<rect x="368.129" y="220.681" transform="matrix(-0.7071 -0.7071 0.7071 -0.7071 477.8266 661.913)" style="fill:#1D1D1B;" width="15.741" height="22.628"/>
	
		<rect x="408.121" y="220.679" transform="matrix(-0.7071 -0.7071 0.7071 -0.7071 546.0981 690.1868)" style="fill:#1D1D1B;" width="15.741" height="22.628"/>
	
		<rect x="328.126" y="124.679" transform="matrix(-0.7071 -0.7071 0.7071 -0.7071 477.4202 469.7395)" style="fill:#1D1D1B;" width="15.741" height="22.628"/>
	
		<rect x="368.135" y="124.684" transform="matrix(-0.7071 -0.7071 0.7071 -0.7071 545.717 498.0387)" style="fill:#1D1D1B;" width="15.741" height="22.628"/>
	
		<rect x="408.126" y="124.681" transform="matrix(-0.7071 -0.7071 0.7071 -0.7071 613.9886 526.3126)" style="fill:#1D1D1B;" width="15.741" height="22.628"/>
	
		<rect x="96.13" y="180.688" transform="matrix(-0.7071 -0.7071 0.7071 -0.7071 41.7754 401.307)" style="fill:#1D1D1B;" width="15.741" height="22.628"/>
	
		<rect x="144.124" y="180.688" transform="matrix(-0.7071 -0.7071 0.7071 -0.7071 123.7051 435.2449)" style="fill:#1D1D1B;" width="15.741" height="22.628"/>
	
		<rect x="192.128" y="180.692" transform="matrix(-0.7071 -0.7071 0.7071 -0.7071 205.6504 469.1957)" style="fill:#1D1D1B;" width="15.741" height="22.628"/>
	
		<rect x="96.131" y="76.683" transform="matrix(-0.7071 -0.7071 0.7071 -0.7071 115.3193 223.7597)" style="fill:#1D1D1B;" width="15.741" height="22.628"/>
	
		<rect x="144.135" y="76.683" transform="matrix(-0.7071 -0.7071 0.7071 -0.7071 197.2669 257.7051)" style="fill:#1D1D1B;" width="15.741" height="22.628"/>
	
		<rect x="192.129" y="76.682" transform="matrix(-0.7071 -0.7071 0.7071 -0.7071 279.198 291.6395)" style="fill:#1D1D1B;" width="15.741" height="22.628"/>
	<path style="fill:#1D1D1B;" d="M487.87,496.129V64.129h-208v-64H24.13v495.999H0v15.742h512v-15.742H487.87z M184.13,496.129
		h-64.258v-80.258h64.258V496.129z M264.128,496.129H199.87V400.13h-95.741v95.999H39.871V383.871h224.258v112.258H264.128z
		 M264.128,368.13H39.871V15.871h224.258V368.13H264.128z M408.129,496.129h-56.258v-72.258h56.258V496.129z M472.129,496.129
		H423.87v-87.999h-87.741v87.999h-56.258V399.87H472.13v96.258H472.129z M472.129,384.13H279.87V79.871h192.259V384.13z"/>
</g>
<g>
</g>
<g>
</g>
<g>
</g>
<g>
</g>
<g>
</g>
<g>
</g>
<g>
</g>
<g>
</g>
<g>
</g>
<g>
</g>
<g>
</g>
<g>
</g>
<g>
</g>
<g>
</g>
<g>
</g>
</svg>
