<?xml version="1.0" encoding="iso-8859-1"?>
<!-- Generator: Adobe Illustrator 19.0.0, SVG Export Plug-In . SVG Version: 6.00 Build 0)  -->
<svg version="1.1" id="Layer_1" xmlns="http://www.w3.org/2000/svg" xmlns:xlink="http://www.w3.org/1999/xlink" x="0px" y="0px"
	 viewBox="0 0 512 512" style="enable-background:new 0 0 512 512;" xml:space="preserve">
<rect x="24" y="8" style="fill:#FAC15C;" width="239.997" height="24"/>
<rect x="255.998" y="408.004" style="fill:#BE1622;" width="95.997" height="32"/>
<path style="fill:#95C11F;" d="M440.001,432L440.001,432c-26.51,0-48-21.491-48-48V256c0-26.51,21.491-48,48-48l0,0
	c26.51,0,48,21.491,48,48v128C488,410.51,466.511,432,440.001,432z"/>
<g>
	<rect x="32" y="424.005" style="fill:#FAC15C;" width="223.996" height="79.995"/>
	<rect x="32" y="151.995" style="fill:#FAC15C;" width="223.996" height="136.005"/>
</g>
<rect x="32" y="32" style="fill:#CBBBA0;" width="223.996" height="120.004"/>
<g>
	<rect x="88.001" y="72" style="fill:#FFFFFF;" width="111.998" height="63.999"/>
	<rect x="88.001" y="208.005" style="fill:#FFFFFF;" width="111.998" height="64.001"/>
</g>
<rect x="32" y="288" style="fill:#CBBBA0;" width="223.996" height="136.005"/>
<rect x="88.001" y="343.999" style="fill:#FFFFFF;" width="111.998" height="63.999"/>
<g>
	<rect x="72" y="136.005" style="fill:#BE1622;" width="144" height="32"/>
	<rect x="72" y="271.999" style="fill:#BE1622;" width="144" height="32"/>
	<rect x="72" y="408.004" style="fill:#BE1622;" width="144" height="32"/>
</g>
<g>
	<rect x="24" y="0.109" style="fill:#1D1D1B;" width="239.997" height="15.78"/>
	
		<rect x="120.112" y="92.681" transform="matrix(-0.7071 -0.7071 0.7071 -0.7071 144.9783 268.0411)" style="fill:#1D1D1B;" width="15.78" height="22.627"/>
	
		<rect x="152.114" y="92.681" transform="matrix(-0.7071 -0.7071 0.7071 -0.7071 199.6089 290.6705)" style="fill:#1D1D1B;" width="15.78" height="22.628"/>
	
		<rect x="120.108" y="228.684" transform="matrix(-0.7071 -0.7071 0.7071 -0.7071 48.803 500.2091)" style="fill:#1D1D1B;" width="15.78" height="22.627"/>
	
		<rect x="152.11" y="228.686" transform="matrix(-0.7071 -0.7071 0.7071 -0.7071 103.4321 522.8422)" style="fill:#1D1D1B;" width="15.78" height="22.628"/>
	
		<rect x="120.112" y="364.679" transform="matrix(-0.7071 -0.7071 0.7071 -0.7071 -47.3543 732.3697)" style="fill:#1D1D1B;" width="15.78" height="22.627"/>
	
		<rect x="152.114" y="364.68" transform="matrix(-0.7071 -0.7071 0.7071 -0.7071 7.2764 755.0005)" style="fill:#1D1D1B;" width="15.78" height="22.627"/>
	<path style="fill:#1D1D1B;" d="M447.891,496.11v-56.787c27.094-3.846,48-27.184,48-55.322V256
		c0-30.818-25.073-55.889-55.891-55.889S384.11,225.183,384.11,256v128c0,28.138,20.907,51.476,48,55.322v56.787h-88.22v-48.22h16
		v-47.781h-96V24.11H24.11v472H0v15.78h512v-15.78H447.891z M399.891,384V256c0-22.117,17.994-40.109,40.11-40.109
		c22.117,0,40.11,17.994,40.11,40.109v128c0,19.416-13.869,35.651-32.22,39.327v-44.057l21.689-21.689l-11.159-11.158
		l-10.531,10.531v-52.951h-15.78v28.951l-10.531-10.531l-11.159,11.159l21.689,21.689v68.058
		C413.759,419.651,399.891,403.417,399.891,384z M328.109,496.11H263.89v-48.22h64.219V496.11z M208.11,431.89v0.22H79.89v-0.22H80
		v-15.78H79.89v-0.22h128.22v0.22h-0.109v15.78H208.11z M192.11,400.11H95.89v-48.22h96.22V400.11z M207.89,400.11v-64.001H80.11
		v64.001h-16v16H39.89V295.89h24.22v16h159.78v-16h24.221V416.11H223.89v-16H207.89z M223.89,175.89v-16h24.221v120.22H223.89v-16
		h-15.999v-63.999H80.11v63.999h-16v16H39.89V159.89h24.22v16H223.89z M192.11,128.109H95.89V79.89h96.22V128.109z M208.11,143.89
		v16.22H79.89v-16.22H208.11z M192.11,264.11H95.89v-48.219h96.22V264.11z M208.11,279.89v16.22H79.89v-16.22H208.11z
		 M344.11,415.89v16.22H263.89v-16.22H344.11z M248.11,39.89V144.11h-24.22v-16h-15.999V64.11H80.11v63.999h-16v16H39.89V39.89
		H248.11z M39.89,431.89h24.22v16h159.78v-16h24.221v64.219H39.89V431.89z"/>
</g>
<g>
</g>
<g>
</g>
<g>
</g>
<g>
</g>
<g>
</g>
<g>
</g>
<g>
</g>
<g>
</g>
<g>
</g>
<g>
</g>
<g>
</g>
<g>
</g>
<g>
</g>
<g>
</g>
<g>
</g>
</svg>
