<?xml version="1.0" encoding="iso-8859-1"?>
<!-- Generator: Adobe Illustrator 19.0.0, SVG Export Plug-In . SVG Version: 6.00 Build 0)  -->
<svg version="1.1" id="Layer_1" xmlns="http://www.w3.org/2000/svg" xmlns:xlink="http://www.w3.org/1999/xlink" x="0px" y="0px"
	 viewBox="0 0 512 512" style="enable-background:new 0 0 512 512;" xml:space="preserve">
<rect x="152.005" y="32.069" style="fill:#CBBBA0;" width="207.999" height="24"/>
<rect x="160.004" y="56.067" style="fill:#FAC15C;" width="192.001" height="80.002"/>
<rect x="192.001" y="80.065" style="fill:#FFFFFF;" width="127.997" height="24"/>
<rect x="119.998" y="456.067" style="fill:#FAC15C;" width="272.002" height="48"/>
<rect x="119.998" y="136.069" style="fill:#CBBBA0;" width="272.002" height="319.997"/>
<g>
	<rect x="152.005" y="168.066" style="fill:#FFFFFF;" width="88" height="32"/>
	<rect x="272.002" y="168.066" style="fill:#FFFFFF;" width="88" height="32"/>
	<rect x="152.005" y="232.07" style="fill:#FFFFFF;" width="88" height="32"/>
	<rect x="272.002" y="232.07" style="fill:#FFFFFF;" width="88" height="32"/>
	<rect x="152.005" y="296.063" style="fill:#FFFFFF;" width="88" height="32"/>
	<rect x="272.002" y="296.063" style="fill:#FFFFFF;" width="88" height="32"/>
	<rect x="152.005" y="360.066" style="fill:#FFFFFF;" width="88" height="32"/>
	<rect x="272.002" y="360.066" style="fill:#FFFFFF;" width="88" height="32"/>
</g>
<rect x="239.995" y="424.07" style="fill:#BE1622;" width="32" height="80.002"/>
<g>
	<polygon style="fill:#1D1D1B;" points="359.863,120.068 344.137,120.068 344.137,63.931 167.863,63.931 167.863,120.068 
		152.137,120.068 152.137,48.206 359.863,48.206 	"/>
	<polygon style="fill:#1D1D1B;" points="263.863,24.206 263.863,0.068 248.137,0.068 248.137,24.206 152,24.206 152,39.932 
		360,39.932 360,24.206 	"/>
	<path style="fill:#1D1D1B;" d="M247.862,207.931H144.138v-47.725h103.725V207.931z M159.862,192.205h72.273v-16.274h-72.273
		V192.205z"/>
	<path style="fill:#1D1D1B;" d="M367.863,207.931H264.138v-47.725h103.726V207.931z M279.862,192.205h72.274v-16.274h-72.274
		V192.205z"/>
	<path style="fill:#1D1D1B;" d="M247.862,271.931H144.138v-47.727h103.725V271.931z M159.862,256.205h72.273V239.93h-72.273V256.205
		z"/>
	<path style="fill:#1D1D1B;" d="M367.863,271.931H264.138v-47.727h103.726V271.931z M279.862,256.205h72.274V239.93h-72.274V256.205
		z"/>
	<path style="fill:#1D1D1B;" d="M247.862,335.932H144.138v-47.725h103.725V335.932z M159.862,320.206h72.273v-16.274h-72.273
		V320.206z"/>
	<path style="fill:#1D1D1B;" d="M367.863,335.932H264.138v-47.725h103.726V335.932z M279.862,320.206h72.274v-16.274h-72.274
		V320.206z"/>
	<path style="fill:#1D1D1B;" d="M247.862,399.931H144.138v-47.725h103.725V399.931z M159.862,384.205h72.273v-16.274h-72.273
		V384.205z"/>
	<path style="fill:#1D1D1B;" d="M367.863,399.931H264.138v-47.725h103.726V399.931z M279.862,384.205h72.274v-16.274h-72.274
		V384.205z"/>
	<path style="fill:#1D1D1B;" d="M399.518,496.206l0.351-368.001H112.14l-0.121,368.001H0v15.726h512v-15.726H399.518z
		 M264.136,496.206h-16.274v-64.274h16.274V496.206z M279.862,463.932h103.962l-0.031,32.274h-103.93V463.932z M384.129,143.931
		l-0.29,304.275H279.862v-32h-47.725v32H127.761l0.1-304.275H384.129z M127.756,463.932h104.381v32.274H127.745L127.756,463.932z"/>
	<rect x="288.001" y="472.201" style="fill:#1D1D1B;" width="16" height="15.726"/>
	<rect x="311.998" y="472.201" style="fill:#1D1D1B;" width="16" height="15.726"/>
	<rect x="335.996" y="472.201" style="fill:#1D1D1B;" width="16" height="15.726"/>
	<rect x="360.004" y="472.201" style="fill:#1D1D1B;" width="16" height="15.726"/>
	<rect x="135.996" y="472.201" style="fill:#1D1D1B;" width="16" height="15.726"/>
	<rect x="160.004" y="472.201" style="fill:#1D1D1B;" width="16" height="15.726"/>
	<rect x="184.001" y="472.201" style="fill:#1D1D1B;" width="16" height="15.726"/>
	<rect x="207.999" y="472.201" style="fill:#1D1D1B;" width="15.999" height="15.726"/>
	<path style="fill:#1D1D1B;" d="M327.862,111.931H184.138V72.206h143.726v39.725H327.862z M199.863,96.206h112.274v-8.275H199.863
		V96.206z"/>
</g>
<g>
</g>
<g>
</g>
<g>
</g>
<g>
</g>
<g>
</g>
<g>
</g>
<g>
</g>
<g>
</g>
<g>
</g>
<g>
</g>
<g>
</g>
<g>
</g>
<g>
</g>
<g>
</g>
<g>
</g>
</svg>
