<?xml version="1.0" encoding="iso-8859-1"?>
<!-- Generator: Adobe Illustrator 19.0.0, SVG Export Plug-In . SVG Version: 6.00 Build 0)  -->
<svg version="1.1" id="Layer_1" xmlns="http://www.w3.org/2000/svg" xmlns:xlink="http://www.w3.org/1999/xlink" x="0px" y="0px"
	 viewBox="0 0 512 512" style="enable-background:new 0 0 512 512;" xml:space="preserve">
<rect x="143.956" y="47.802" style="fill:#CBBBA0;" width="224.097" height="32.014"/>
<path style="fill:#F9B233;" d="M215.983,47.806c0-22.1,17.916-40.016,40.016-40.016s40.016,17.916,40.016,40.016"/>
<rect x="151.952" y="71.812" style="fill:#FAC15C;" width="208.083" height="32.014"/>
<g>
	<rect x="151.952" y="103.829" style="fill:#CBBBA0;" width="205.653" height="408.17"/>
	<rect x="7.895" y="169.607" style="fill:#CBBBA0;" width="144.06" height="30.262"/>
	<rect x="360.046" y="169.607" style="fill:#CBBBA0;" width="144.06" height="30.262"/>
</g>
<g>
	<rect x="7.895" y="199.869" style="fill:#FAC15C;" width="144.06" height="312.13"/>
	<rect x="360.046" y="199.869" style="fill:#FAC15C;" width="144.06" height="312.13"/>
</g>
<g>
	<rect x="23.906" y="192.08" style="fill:#1D1D1B;" width="112.043" height="15.577"/>
	<rect x="167.966" y="96.04" style="fill:#1D1D1B;" width="176.077" height="15.577"/>
	<rect x="32.121" y="231.886" style="fill:#1D1D1B;" width="15.577" height="32.014"/>
</g>
<rect x="72.133" y="231.886" style="fill:#FFFFFF;" width="15.577" height="32.014"/>
<rect x="112.157" y="231.886" style="fill:#1D1D1B;" width="15.577" height="32.014"/>
<rect x="176.18" y="127.839" style="fill:#FFFFFF;" width="15.577" height="32.014"/>
<g>
	<rect x="224.2" y="127.839" style="fill:#1D1D1B;" width="15.577" height="32.014"/>
	<rect x="272.22" y="127.839" style="fill:#1D1D1B;" width="15.577" height="32.014"/>
	<rect x="320.24" y="127.839" style="fill:#1D1D1B;" width="15.577" height="32.014"/>
	<rect x="176.18" y="183.866" style="fill:#1D1D1B;" width="15.577" height="32.014"/>
</g>
<rect x="224.2" y="183.866" style="fill:#FFFFFF;" width="15.577" height="32.014"/>
<g>
	<rect x="272.22" y="183.866" style="fill:#1D1D1B;" width="15.577" height="32.014"/>
	<rect x="320.24" y="183.866" style="fill:#1D1D1B;" width="15.577" height="32.014"/>
	<rect x="176.18" y="239.882" style="fill:#1D1D1B;" width="15.577" height="32.014"/>
	<rect x="224.2" y="239.882" style="fill:#1D1D1B;" width="15.577" height="32.014"/>
</g>
<g>
	<rect x="272.22" y="239.882" style="fill:#FFFFFF;" width="15.577" height="32.014"/>
	<rect x="320.24" y="239.882" style="fill:#FFFFFF;" width="15.577" height="32.014"/>
</g>
<rect x="176.18" y="295.909" style="fill:#1D1D1B;" width="15.577" height="32.014"/>
<rect x="224.2" y="295.909" style="fill:#FFFFFF;" width="15.577" height="32.014"/>
<g>
	<rect x="272.22" y="295.909" style="fill:#1D1D1B;" width="15.577" height="32.014"/>
	<rect x="320.24" y="295.909" style="fill:#1D1D1B;" width="15.577" height="32.014"/>
	<rect x="176.18" y="351.936" style="fill:#1D1D1B;" width="15.577" height="32.014"/>
	<rect x="224.2" y="351.936" style="fill:#1D1D1B;" width="15.577" height="32.014"/>
</g>
<rect x="272.22" y="351.936" style="fill:#FFFFFF;" width="15.577" height="32.014"/>
<g>
	<rect x="320.24" y="351.936" style="fill:#1D1D1B;" width="15.577" height="32.014"/>
	<rect x="176.18" y="407.952" style="fill:#1D1D1B;" width="15.577" height="32.014"/>
</g>
<rect x="224.2" y="407.952" style="fill:#FFFFFF;" width="15.577" height="32.014"/>
<g>
	<rect x="272.22" y="407.952" style="fill:#1D1D1B;" width="15.577" height="32.014"/>
	<rect x="320.24" y="407.952" style="fill:#1D1D1B;" width="15.577" height="32.014"/>
</g>
<rect x="176.18" y="463.979" style="fill:#FFFFFF;" width="15.577" height="32.014"/>
<g>
	<rect x="224.2" y="463.979" style="fill:#1D1D1B;" width="15.577" height="32.014"/>
	<rect x="272.22" y="463.979" style="fill:#1D1D1B;" width="15.577" height="32.014"/>
</g>
<g>
	<rect x="320.24" y="463.979" style="fill:#FFFFFF;" width="15.577" height="32.014"/>
	<rect x="32.121" y="287.902" style="fill:#FFFFFF;" width="15.577" height="32.014"/>
</g>
<g>
	<rect x="72.133" y="287.902" style="fill:#1D1D1B;" width="15.577" height="32.014"/>
	<rect x="112.157" y="287.902" style="fill:#1D1D1B;" width="15.577" height="32.014"/>
	<rect x="32.121" y="343.929" style="fill:#1D1D1B;" width="15.577" height="32.014"/>
</g>
<rect x="72.133" y="343.929" style="fill:#FFFFFF;" width="15.577" height="32.014"/>
<g>
	<rect x="112.157" y="343.929" style="fill:#1D1D1B;" width="15.577" height="32.014"/>
	<rect x="32.121" y="399.956" style="fill:#1D1D1B;" width="15.577" height="32.014"/>
</g>
<rect x="72.133" y="399.956" style="fill:#FFFFFF;" width="15.577" height="32.014"/>
<g>
	<rect x="112.157" y="399.956" style="fill:#1D1D1B;" width="15.577" height="32.014"/>
	<rect x="32.121" y="455.972" style="fill:#1D1D1B;" width="15.577" height="32.014"/>
	<rect x="72.133" y="455.972" style="fill:#1D1D1B;" width="15.577" height="32.014"/>
</g>
<rect x="112.157" y="455.972" style="fill:#FFFFFF;" width="15.577" height="32.014"/>
<g>
	<rect x="376.049" y="192.08" style="fill:#1D1D1B;" width="112.043" height="15.577"/>
	<rect x="464.3" y="231.886" style="fill:#1D1D1B;" width="15.577" height="32.014"/>
	<rect x="424.287" y="231.886" style="fill:#1D1D1B;" width="15.577" height="32.014"/>
	<rect x="384.263" y="231.886" style="fill:#1D1D1B;" width="15.577" height="32.014"/>
	<rect x="464.3" y="287.902" style="fill:#1D1D1B;" width="15.577" height="32.014"/>
	<rect x="424.287" y="287.902" style="fill:#1D1D1B;" width="15.577" height="32.014"/>
</g>
<rect x="384.263" y="287.902" style="fill:#FFFFFF;" width="15.577" height="32.014"/>
<rect x="464.3" y="343.929" style="fill:#1D1D1B;" width="15.577" height="32.014"/>
<rect x="424.287" y="343.929" style="fill:#FFFFFF;" width="15.577" height="32.014"/>
<rect x="384.263" y="343.929" style="fill:#1D1D1B;" width="15.577" height="32.014"/>
<rect x="464.3" y="399.956" style="fill:#FFFFFF;" width="15.577" height="32.014"/>
<g>
	<rect x="424.287" y="399.956" style="fill:#1D1D1B;" width="15.577" height="32.014"/>
	<rect x="384.263" y="399.956" style="fill:#1D1D1B;" width="15.577" height="32.014"/>
	<rect x="464.3" y="455.972" style="fill:#1D1D1B;" width="15.577" height="32.014"/>
</g>
<rect x="424.287" y="455.972" style="fill:#FFFFFF;" width="15.577" height="32.014"/>
<g>
	<rect x="384.263" y="455.972" style="fill:#1D1D1B;" width="15.577" height="32.014"/>
	<path style="fill:#1D1D1B;" d="M303.16,40.017C299.429,17.349,279.707,0,256,0s-43.43,17.349-47.161,40.017h-64.886v15.577h224.094
		V40.017H303.16z M256,15.577c15.085,0,27.778,10.42,31.271,24.44H224.73C228.222,25.998,240.915,15.577,256,15.577z"/>
	<rect x="400.277" y="95.822" style="fill:#1D1D1B;" width="15.577" height="16.006"/>
	<polygon style="fill:#1D1D1B;" points="415.852,160.067 415.852,119.836 400.275,119.836 400.275,160.067 367.831,160.067 
		367.831,64.027 144.168,64.027 144.168,160.067 111.725,160.067 111.725,119.836 96.148,119.836 96.148,160.067 0.107,160.067 
		0.107,512 15.685,512 15.685,175.645 144.168,175.645 144.168,512 159.745,512 159.745,79.605 352.254,79.605 352.254,512 
		367.831,512 367.831,175.645 496.315,175.645 496.315,512 511.893,512 511.893,160.067 	"/>
	<rect x="96.143" y="95.822" style="fill:#1D1D1B;" width="15.577" height="16.006"/>
</g>
<g>
</g>
<g>
</g>
<g>
</g>
<g>
</g>
<g>
</g>
<g>
</g>
<g>
</g>
<g>
</g>
<g>
</g>
<g>
</g>
<g>
</g>
<g>
</g>
<g>
</g>
<g>
</g>
<g>
</g>
</svg>
