<?xml version="1.0" encoding="iso-8859-1"?>
<!-- Generator: Adobe Illustrator 19.0.0, SVG Export Plug-In . SVG Version: 6.00 Build 0)  -->
<svg version="1.1" id="Layer_1" xmlns="http://www.w3.org/2000/svg" xmlns:xlink="http://www.w3.org/1999/xlink" x="0px" y="0px"
	 viewBox="0 0 511.996 511.996" style="enable-background:new 0 0 511.996 511.996;" xml:space="preserve">
<rect x="151.996" y="168.499" style="fill:#FAC15C;" width="208.003" height="16"/>
<rect x="96" y="192.499" style="fill:#CBBBA0;" width="319.996" height="24"/>
<path style="fill:#FAC15C;" d="M176,104.503c0-44.182,35.817-80,80-80c44.183,0,80,35.817,80,80"/>
<rect x="175.996" y="104.506" style="fill:#CBBBA0;" width="160.003" height="64.003"/>
<rect x="24" y="216.499" style="fill:#FAC15C;" width="463.996" height="216"/>
<g>
	<rect x="168" y="248.506" style="fill:#FFFFFF;" width="32" height="48"/>
	<rect x="240" y="248.506" style="fill:#FFFFFF;" width="32" height="48"/>
	<rect x="312" y="248.506" style="fill:#FFFFFF;" width="32" height="48"/>
</g>
<g>
	<rect x="72" y="248.506" style="fill:#BE1622;" width="48" height="112.003"/>
	<rect x="391.996" y="248.506" style="fill:#BE1622;" width="48" height="112.003"/>
</g>
<g>
	<rect x="72" y="360.498" style="fill:#FFFFFF;" width="48" height="40.003"/>
	<rect x="391.996" y="360.498" style="fill:#FFFFFF;" width="48" height="40.003"/>
</g>
<rect x="24" y="432.498" style="fill:#CBBBA0;" width="463.996" height="64.003"/>
<rect x="216" y="384.498" style="fill:#FFFFFF;" width="79.996" height="72"/>
<rect x="168" y="328.502" style="fill:#BE1622;" width="175.996" height="32"/>
<g>
	<rect y="495.834" style="fill:#1D1D1B;" width="511.996" height="15.659"/>
	<rect y="209.619" style="fill:#1D1D1B;" width="511.996" height="15.659"/>
	<rect x="96" y="184.669" style="fill:#1D1D1B;" width="319.996" height="15.659"/>
</g>
<g>
	<rect x="216" y="128.673" style="fill:#FFFFFF;" width="16" height="15.659"/>
	<rect x="247.996" y="128.673" style="fill:#FFFFFF;" width="16" height="15.659"/>
	<rect x="280.003" y="128.673" style="fill:#FFFFFF;" width="16" height="15.659"/>
</g>
<g>
	<rect x="151.996" y="472.669" style="fill:#1D1D1B;" width="208.003" height="15.659"/>
	<path style="fill:#1D1D1B;" d="M207.83,304.333h-47.659v-63.659h47.659V304.333z M175.83,288.674h16.341v-32.341H175.83V288.674z"
		/>
	<path style="fill:#1D1D1B;" d="M279.83,304.333h-47.66v-63.659h47.659v63.659H279.83z M247.829,288.674h16.341v-32.341h-16.341
		V288.674z"/>
	<path style="fill:#1D1D1B;" d="M351.829,304.333H304.17v-63.659h47.659V304.333z M319.829,288.674h16.341v-32.341h-16.341V288.674z
		"/>
	<path style="fill:#1D1D1B;" d="M335.829,368.332h15.999v-47.659H160.171v47.659h15.999v80.341h-8.17v15.659H344v-15.659h-8.17
		v-80.341H335.829z M175.83,336.333h160.34v16.341H175.83V336.333z M191.83,368.332H320.17v80.341H303.83v-72h-95.66v72H191.83
		V368.332z M263.829,392.332h24.341v56.341h-24.341V392.332z M248.171,448.673h-24.341v-56.341h24.34v56.341H248.171z"/>
	<polygon style="fill:#1D1D1B;" points="168.001,440.332 168.001,424.673 31.829,424.673 31.829,232.502 16.17,232.502 
		16.17,488.503 31.829,488.503 31.829,440.332 	"/>
	<polygon style="fill:#1D1D1B;" points="480.171,232.502 480.171,424.673 343.999,424.673 343.999,440.332 480.171,440.332 
		480.171,488.503 495.829,488.503 495.829,232.502 	"/>
	<path style="fill:#1D1D1B;" d="M127.829,240.673H64.17v167.658h63.659V240.673z M112.17,256.332v96.341H79.83v-96.341H112.17
		L112.17,256.332z M79.83,392.673v-24.34h32.34v24.34H79.83z"/>
	<path style="fill:#1D1D1B;" d="M447.828,240.673h-63.658v167.658h63.658V240.673z M432.17,256.332v96.341h-32.34v-96.341H432.17
		L432.17,256.332z M399.83,392.673v-24.34h32.34v24.34H399.83z"/>
	<path style="fill:#1D1D1B;" d="M168.171,160.673H152v15.659h208v-15.659h-16.17v-56.171c0-45.789-35.227-83.485-80.001-87.462
		V0.503H248.17v16.538c-44.772,3.976-80,41.673-80,87.462V160.673z M256,32.333c37.15,0,67.834,28.214,71.748,64.341H184.252
		C188.166,60.547,218.851,32.333,256,32.333z M183.83,112.332h144.34v48.341H183.83V112.332z"/>
</g>
<g>
</g>
<g>
</g>
<g>
</g>
<g>
</g>
<g>
</g>
<g>
</g>
<g>
</g>
<g>
</g>
<g>
</g>
<g>
</g>
<g>
</g>
<g>
</g>
<g>
</g>
<g>
</g>
<g>
</g>
</svg>
