<?xml version="1.0" encoding="iso-8859-1"?>
<!-- Generator: Adobe Illustrator 19.0.0, SVG Export Plug-In . SVG Version: 6.00 Build 0)  -->
<svg version="1.1" id="Layer_1" xmlns="http://www.w3.org/2000/svg" xmlns:xlink="http://www.w3.org/1999/xlink" x="0px" y="0px"
	 viewBox="0 0 512 512" style="enable-background:new 0 0 512 512;" xml:space="preserve">
<polygon style="fill:#BE1622;" points="495.666,228.039 16.334,228.039 80.245,148.15 431.755,148.15 "/>
<polygon style="fill:#CBBBA0;" points="184.1,228.039 184.1,92.228 112.2,92.228 112.2,228.039 48.289,228.039 48.289,395.805 
	463.711,395.805 463.711,228.039 "/>
<rect x="80.245" y="315.912" style="fill:#FFFFFF;" width="87.878" height="159.778"/>
<g>
	<rect x="48.287" y="259.994" style="fill:#FAC15C;" width="415.417" height="23.967"/>
	<rect x="48.287" y="395.801" style="fill:#FAC15C;" width="31.956" height="79.889"/>
	<rect x="176.107" y="395.801" style="fill:#FAC15C;" width="287.598" height="79.889"/>
</g>
<g>
	<rect x="208.065" y="315.912" style="fill:#FFFFFF;" width="79.889" height="111.846"/>
	<rect x="343.882" y="315.912" style="fill:#FFFFFF;" width="79.889" height="111.846"/>
</g>
<g>
	<rect x="96.365" y="379.828" style="fill:#1D1D1B;" width="15.701" height="23.967"/>
	<rect x="104.215" y="60.411" style="fill:#1D1D1B;" width="87.878" height="15.701"/>
	<path style="fill:#1D1D1B;" d="M471.562,235.89H512l-76.472-95.59h-27.877V76.112h24.105V60.411h-24.105V44.157H471.7V28.455
		H367.844v15.701h24.105v16.254H327.9v15.701h64.049v64.187H191.951V84.377h-87.601v55.922H76.472L0,235.89h40.438v231.954H0.356
		v15.701h511.287v-15.701H471.56V235.89H471.562z M191.951,156.001h236.031l51.35,64.187H191.951V156.001z M32.668,220.188
		l51.35-64.187h20.331v64.187L32.668,220.188L32.668,220.188z M72.394,467.843H56.14v-64.187h16.254V467.843z M160.272,467.843
		H88.095V323.767h72.176V467.843z M455.86,467.843H175.973v-64.187h24.243v16.254h-8.127v15.701h8.127h95.59h8.127V419.91h-8.127
		v-16.254h40.221v16.254H327.9v15.701h8.127h95.59h8.127V419.91h-8.127v-16.254h24.243L455.86,467.843L455.86,467.843z
		 M240.16,379.689v40.221h-24.243v-40.221H240.16z M215.917,363.988v-40.221h24.243v40.221H215.917z M280.105,379.689v40.221
		h-24.243v-40.221H280.105z M255.862,363.988v-40.221h24.243v40.221H255.862z M375.971,379.689v40.221h-24.243v-40.221H375.971z
		 M351.728,363.988v-40.221h24.243v40.221H351.728z M415.916,379.689v40.221h-24.243v-40.221H415.916z M391.673,363.988v-40.221
		h24.243v40.221H391.673z M455.86,387.955h-24.243v-79.889h-95.59v79.889h-40.221v-79.889h-95.59v79.889h-24.243v-79.889H72.394
		v79.889H56.14v-96.143h399.719v96.143H455.86z M455.86,276.11H56.14v-8.265h399.719v8.265H455.86z M455.86,252.144H56.14V235.89
		h63.911v-55.922h16.116v-15.701h-16.116v-64.187h56.199v16.254h-16.116v15.701h16.116V235.89H455.86L455.86,252.144L455.86,252.144
		z"/>
</g>
<g>
</g>
<g>
</g>
<g>
</g>
<g>
</g>
<g>
</g>
<g>
</g>
<g>
</g>
<g>
</g>
<g>
</g>
<g>
</g>
<g>
</g>
<g>
</g>
<g>
</g>
<g>
</g>
<g>
</g>
</svg>
