<?xml version="1.0" encoding="iso-8859-1"?>
<!-- Generator: Adobe Illustrator 19.0.0, SVG Export Plug-In . SVG Version: 6.00 Build 0)  -->
<svg version="1.1" id="Layer_1" xmlns="http://www.w3.org/2000/svg" xmlns:xlink="http://www.w3.org/1999/xlink" x="0px" y="0px"
	 viewBox="0 0 512 512" style="enable-background:new 0 0 512 512;" xml:space="preserve">
<rect x="216" y="56.077" style="fill:#F9B233;" width="80.004" height="80.004"/>
<rect x="200.004" y="136.081" style="fill:#FAC15C;" width="111.997" height="368.004"/>
<g>
	<rect x="39.997" y="136.081" style="fill:#CBBBA0;" width="111.997" height="368.004"/>
	<rect x="360.001" y="136.081" style="fill:#CBBBA0;" width="111.997" height="368.004"/>
</g>
<g>
	<path style="fill:#1D1D1B;" d="M479.846,496.23v-368H352.153v368h-32.307v-368H192.153v368h-32.307v-368H32.153v368H0v15.693h512
		V496.23H479.846z M367.846,143.923h96.307V496.23h-96.307V143.923z M207.846,143.923h96.307V496.23h-96.307L207.846,143.923
		L207.846,143.923z M47.846,143.923h96.307V496.23H47.846V143.923z"/>
	<polygon style="fill:#1D1D1B;" points="223.847,63.924 288.153,63.924 288.153,120.077 303.846,120.077 303.846,48.231 
		263.847,48.231 263.847,0.077 248.153,0.077 248.153,48.231 208.154,48.231 208.154,120.077 223.847,120.077 	"/>
</g>
<rect x="232.154" y="80.077" style="fill:#FFFFFF;" width="15.693" height="31.999"/>
<rect x="216.157" y="168.074" style="fill:#1D1D1B;" width="15.693" height="24"/>
<rect x="248.15" y="168.074" style="fill:#FFFFFF;" width="15.693" height="24"/>
<rect x="280.154" y="168.074" style="fill:#1D1D1B;" width="15.693" height="24"/>
<rect x="216.157" y="208.081" style="fill:#FFFFFF;" width="15.693" height="24"/>
<g>
	<rect x="248.15" y="208.081" style="fill:#1D1D1B;" width="15.693" height="24"/>
	<rect x="280.154" y="208.081" style="fill:#1D1D1B;" width="15.693" height="24"/>
	<rect x="216.157" y="248.078" style="fill:#1D1D1B;" width="15.693" height="24"/>
	<rect x="248.15" y="248.078" style="fill:#1D1D1B;" width="15.693" height="24"/>
</g>
<rect x="280.154" y="248.078" style="fill:#FFFFFF;" width="15.693" height="24"/>
<rect x="216.157" y="288.074" style="fill:#1D1D1B;" width="15.693" height="24"/>
<g>
	<rect x="248.15" y="288.074" style="fill:#FFFFFF;" width="15.693" height="24"/>
	<rect x="280.154" y="288.074" style="fill:#FFFFFF;" width="15.693" height="24"/>
	<rect x="216.157" y="328.081" style="fill:#FFFFFF;" width="15.693" height="24"/>
</g>
<g>
	<rect x="248.15" y="328.081" style="fill:#1D1D1B;" width="15.693" height="24"/>
	<rect x="280.154" y="328.081" style="fill:#1D1D1B;" width="15.693" height="24"/>
	<rect x="216.157" y="368.078" style="fill:#1D1D1B;" width="15.693" height="24"/>
	<rect x="248.15" y="368.078" style="fill:#1D1D1B;" width="15.693" height="24"/>
	<rect x="280.154" y="368.078" style="fill:#1D1D1B;" width="15.693" height="24"/>
</g>
<g>
	<rect x="216.157" y="408.074" style="fill:#FFFFFF;" width="15.693" height="24"/>
	<rect x="248.15" y="408.074" style="fill:#FFFFFF;" width="15.693" height="24"/>
</g>
<g>
	<rect x="280.154" y="408.074" style="fill:#1D1D1B;" width="15.693" height="24"/>
	<rect x="216.157" y="448.081" style="fill:#1D1D1B;" width="15.693" height="24"/>
	<rect x="248.15" y="448.081" style="fill:#1D1D1B;" width="15.693" height="24"/>
	<rect x="280.154" y="448.081" style="fill:#1D1D1B;" width="15.693" height="24"/>
	<rect x="264.157" y="80.077" style="fill:#1D1D1B;" width="15.693" height="31.999"/>
	<rect x="63.997" y="168.231" style="fill:#1D1D1B;" width="24" height="15.693"/>
</g>
<g>
	<rect x="104.004" y="168.231" style="fill:#FFFFFF;" width="24" height="15.693"/>
	<rect x="63.997" y="200.234" style="fill:#FFFFFF;" width="24" height="15.693"/>
</g>
<g>
	<rect x="104.004" y="200.234" style="fill:#1D1D1B;" width="24" height="15.693"/>
	<rect x="63.997" y="232.228" style="fill:#1D1D1B;" width="24" height="15.693"/>
</g>
<rect x="104.004" y="232.228" style="fill:#FFFFFF;" width="24" height="15.693"/>
<rect x="63.997" y="264.231" style="fill:#1D1D1B;" width="24" height="15.693"/>
<rect x="104.004" y="264.231" style="fill:#FFFFFF;" width="24" height="15.693"/>
<g>
	<rect x="63.997" y="296.235" style="fill:#1D1D1B;" width="24" height="15.693"/>
	<rect x="104.004" y="296.235" style="fill:#1D1D1B;" width="24" height="15.693"/>
</g>
<rect x="63.997" y="328.228" style="fill:#FFFFFF;" width="24" height="15.693"/>
<g>
	<rect x="104.004" y="328.228" style="fill:#1D1D1B;" width="24" height="15.693"/>
	<rect x="63.997" y="360.231" style="fill:#1D1D1B;" width="24" height="15.693"/>
</g>
<g>
	<rect x="104.004" y="360.231" style="fill:#FFFFFF;" width="24" height="15.693"/>
	<rect x="63.997" y="392.224" style="fill:#FFFFFF;" width="24" height="15.693"/>
</g>
<rect x="104.004" y="392.224" style="fill:#1D1D1B;" width="24" height="15.693"/>
<g>
	<rect x="63.997" y="424.228" style="fill:#FFFFFF;" width="24" height="15.693"/>
	<rect x="104.004" y="424.228" style="fill:#FFFFFF;" width="24" height="15.693"/>
</g>
<g>
	<rect x="63.997" y="456.231" style="fill:#1D1D1B;" width="24" height="15.693"/>
	<rect x="104.004" y="456.231" style="fill:#1D1D1B;" width="24" height="15.693"/>
</g>
<rect x="384.001" y="168.231" style="fill:#FFFFFF;" width="24" height="15.693"/>
<g>
	<rect x="423.997" y="168.231" style="fill:#1D1D1B;" width="24" height="15.693"/>
	<rect x="384.001" y="200.234" style="fill:#1D1D1B;" width="24" height="15.693"/>
</g>
<g>
	<rect x="423.997" y="200.234" style="fill:#FFFFFF;" width="24" height="15.693"/>
	<rect x="384.001" y="232.228" style="fill:#FFFFFF;" width="24" height="15.693"/>
</g>
<rect x="423.997" y="232.228" style="fill:#1D1D1B;" width="24" height="15.693"/>
<rect x="384.001" y="264.231" style="fill:#FFFFFF;" width="24" height="15.693"/>
<rect x="423.997" y="264.231" style="fill:#1D1D1B;" width="24" height="15.693"/>
<rect x="384.001" y="296.235" style="fill:#FFFFFF;" width="24" height="15.693"/>
<g>
	<rect x="423.997" y="296.235" style="fill:#1D1D1B;" width="24" height="15.693"/>
	<rect x="384.001" y="328.228" style="fill:#1D1D1B;" width="24" height="15.693"/>
	<rect x="423.997" y="328.228" style="fill:#1D1D1B;" width="24" height="15.693"/>
	<rect x="384.001" y="360.231" style="fill:#1D1D1B;" width="24" height="15.693"/>
</g>
<rect x="423.997" y="360.231" style="fill:#FFFFFF;" width="24" height="15.693"/>
<g>
	<rect x="384.001" y="392.224" style="fill:#1D1D1B;" width="24" height="15.693"/>
	<rect x="423.997" y="392.224" style="fill:#1D1D1B;" width="24" height="15.693"/>
	<rect x="384.001" y="424.228" style="fill:#1D1D1B;" width="24" height="15.693"/>
</g>
<g>
	<rect x="423.997" y="424.228" style="fill:#FFFFFF;" width="24" height="15.693"/>
	<rect x="384.001" y="456.231" style="fill:#FFFFFF;" width="24" height="15.693"/>
</g>
<rect x="423.997" y="456.231" style="fill:#1D1D1B;" width="24" height="15.693"/>
<g>
</g>
<g>
</g>
<g>
</g>
<g>
</g>
<g>
</g>
<g>
</g>
<g>
</g>
<g>
</g>
<g>
</g>
<g>
</g>
<g>
</g>
<g>
</g>
<g>
</g>
<g>
</g>
<g>
</g>
</svg>
