<svg height="512pt" viewBox="-51 0 512 512.003" width="512pt" xmlns="http://www.w3.org/2000/svg"><path d="m325.6875 463.054688h-226.449219c0-62.53125 50.691407-113.222657 113.222657-113.222657s113.226562 50.691407 113.226562 113.222657zm0 0" fill="#d9d9d9"/><path d="m212.460938 349.832031c-5.429688 0-10.769532.390625-15.996094 1.128907 54.957031 7.773437 97.226562 54.992187 97.226562 112.09375h31.996094c0-62.53125-50.695312-113.222657-113.226562-113.222657zm0 0" fill="#c2c2c2"/><path d="m138.476562 343.703125h-119.976562c-6.074219 0-11-4.925781-11-11v-11.328125c0-6.074219 4.925781-11 11-11h119.976562c6.074219 0 10.996094 4.925781 10.996094 11v11.328125c0 6.074219-4.921875 11-10.996094 11zm0 0" fill="#addff5"/><path d="m138.476562 310.375h-31.996093c6.074219 0 11 4.925781 11 10.996094v11.332031c0 6.074219-4.925781 11-11 11h31.996093c6.074219 0 10.996094-4.925781 10.996094-11v-11.332031c0-6.070313-4.921875-10.996094-10.996094-10.996094zm0 0" fill="#8bb3c4"/><path d="m87.410156 343.703125h-46.605468c.429687 1.546875 1.027343 3.070313 1.855468 4.53125 16.164063 28.527344 39.421875 51.667969 66.816406 67.71875 5.652344-12.339844 13.449219-23.484375 22.925782-32.960937-17.425782-9.707032-32.816406-23.039063-44.992188-39.289063zm0 0" fill="#a8a8a8"/><path d="m233.457031 406.441406c0 11.597656-9.398437 20.996094-20.996093 20.996094-11.59375 0-20.996094-9.398438-20.996094-20.996094 0-11.59375 9.402344-20.996094 20.996094-20.996094 11.597656 0 20.996093 9.402344 20.996093 20.996094zm0 0" fill="#6b6b6b"/><path d="m303.851562 107.773438c2.410157.628906 4.742188 1.71875 6.863282 3.289062 22.492187 16.660156 41.140625 38.589844 53.929687 63.417969 11.242188 21.820312 17.957031 45.992187 19.730469 70.597656l.195312 23.246094c-3.097656 56.277343-31.746093 105.851562-74.519531 137.300781-6.859375-11.636719-15.742187-21.9375-26.164062-30.417969 36.851562-25.882812 60.984375-68.699219 60.984375-117.050781 0-45.769531-21.125-87.671875-57.960938-114.957031" fill="#a8a8a8"/><path d="m384.375 245.078125c-1.773438-24.605469-8.488281-48.777344-19.730469-70.597656-12.789062-24.828125-31.4375-46.757813-53.929687-63.417969-2.121094-1.570312-4.453125-2.660156-6.863282-3.289062l-4.929687 10.3125c18.535156 15.605468 33.996094 34.910156 45.0625 56.394531 11.238281 21.820312 17.957031 45.992187 19.726563 70.597656l.199218 23.246094c-2.765625 50.1875-25.859375 95.035156-61.160156 126.457031 2.628906 3.46875 5.082031 7.078125 7.300781 10.84375 42.773438-31.449219 71.421875-81.023438 74.523438-137.304688zm0 0" fill="#8c8c8c"/><path d="m22.757812 504.507812 16.457032-41.453124h346.496094l16.457031 41.453124zm0 0" fill="#757575"/><path d="m385.710938 463.054688h-28.660157l16.457031 41.453124h28.660157zm0 0" fill="#616161"/><path d="m355.214844 74.5-6.59375 6.59375c-4.34375 4.34375-11.382813 4.34375-15.726563 0l-48.023437-48.023438c-4.34375-4.339843-4.34375-11.382812 0-15.726562l6.59375-6.59375c4.339844-4.339844 11.382812-4.339844 15.726562 0l48.023438 48.023438c4.34375 4.34375 4.34375 11.386718 0 15.726562zm0 0" fill="#5b9ed6"/><path d="m355.214844 58.773438-24.011719-24.011719 5.871094 5.875c4.34375 4.34375 4.34375 11.382812 0 15.726562l-6.59375 6.59375c-4.34375 4.339844-11.382813 4.339844-15.726563 0l-29.882812-29.886719 48.023437 48.027344c4.34375 4.339844 11.382813 4.339844 15.726563 0l6.59375-6.59375c4.34375-4.34375 4.34375-11.386718 0-15.730468zm0 0" fill="#4f89ba"/><path d="m193.898438 261.816406-12.546876 12.546875c-3.339843 3.339844-8.753906 3.339844-12.09375 0l-77.652343-77.65625c-3.339844-3.339843-3.339844-8.753906 0-12.09375l12.546875-12.546875c3.339844-3.339844 8.753906-3.339844 12.09375 0l77.652344 77.65625c3.339843 3.335938 3.339843 8.75 0 12.09375zm0 0" fill="#5b9ed6"/><path d="m193.898438 249.722656-18.140626-18.140625c3.339844 3.335938 3.339844 8.75 0 12.089844l-12.546874 12.550781c-3.339844 3.335938-8.753907 3.335938-12.09375 0l18.140624 18.140625c3.339844 3.335938 8.753907 3.335938 12.09375 0l12.546876-12.550781c3.339843-3.339844 3.339843-8.753906 0-12.089844zm0 0" fill="#4f89ba"/><path d="m122.519531 227.621094-15.832031 15.835937c-4.492188 4.488281-11.769531 4.488281-16.261719 0l-7.703125-7.703125c-4.488281-4.492187-4.488281-11.769531 0-16.261718l15.832032-15.832032zm0 0" fill="#addff5"/><path d="m162.304688 267.410156-15.832032 15.832032c-4.488281 4.492187-11.769531 4.492187-16.261718 0l-7.699219-7.703126c-4.492188-4.488281-4.492188-11.769531 0-16.257812l15.832031-15.832031zm0 0" fill="#addff5"/><path d="m248.070312 78.109375 40.914063-40.917969 42.726563 42.726563-40.917969 40.917969zm0 0" fill="#a8a8a8"/><path d="m313.574219 61.777344-40.917969 40.914062-24.585938-24.582031 42.726563 42.722656 40.917969-40.914062zm0 0" fill="#8c8c8c"/><path d="m123.195312 179.019531 112.890626-112.890625 63.75 63.75-112.890626 112.890625zm0 0" fill="#d9d9d9"/><path d="m236.089844 66.125 45.609375 45.613281-112.894531 112.890625 18.140624 18.140625 112.894532-112.890625zm0 0" fill="#c2c2c2"/><path d="m212.460938 377.941406c-15.714844 0-28.496094 12.785156-28.496094 28.496094s12.78125 28.496094 28.496094 28.496094c15.710937 0 28.492187-12.785156 28.492187-28.496094s-12.78125-28.496094-28.492187-28.496094zm0 41.992188c-7.445313 0-13.5-6.054688-13.5-13.496094s6.054687-13.496094 13.5-13.496094c7.441406 0 13.496093 6.054688 13.496093 13.496094s-6.054687 13.496094-13.496093 13.496094zm0 0"/><path d="m392.675781 460.28125c-1.132812-2.855469-3.894531-4.730469-6.96875-4.730469h-53.285156c-1.078125-17.167969-5.707031-33.234375-13.242187-47.730469 40.445312-31.765624 66.714843-78.527343 72.105468-129.5.4375-4.117187-2.550781-7.808593-6.667968-8.242187-4.125-.441406-7.8125 2.546875-8.246094 6.667969-4.882813 46.144531-28.21875 88.695312-64.410156 117.933594-1.699219-2.46875-3.941407-4.488282-5.8125-6.820313-3.003907-3.730469-5.882813-7.550781-9.296876-10.902344-.40625-.394531-.6875-.898437-1.097656-1.289062 73.832032-59.074219 76.425782-171.574219 2.035156-233.144531l7.351563-7.347657c2.929687-2.929687 2.929687-7.679687 0-10.605469l-3.742187-3.742187 4.105468-4.101563c16.121094 10.378907 38.570313 34.191407 52.472656 61.183594 10.679688 20.726563 17.222657 44.140625 18.917969 67.699219.296875 4.175781 3.941407 7.246094 8.015625 6.941406 4.132813-.296875 7.238282-3.886719 6.941406-8.019531-3.988281-55.386719-31.515624-105.421875-75.574218-138.582031l16.269531-16.269531c8.082031 4.015624 16.140625 1.945312 21.375-3.289063l6.59375-6.59375c7.261719-7.257813 7.261719-19.070313 0-26.332031l-48.027344-48.019532c-7.261719-7.261718-19.070312-7.261718-26.332031 0l-6.59375 6.59375c-6.839844 6.839844-6.992188 17.597657-.941406 24.90625l-30.554688 30.550782-6.679687-6.675782c-2.929688-2.929687-7.675781-2.929687-10.605469 0l-47.785156 47.785157c-2.929688 2.929687-2.929688 7.675781 0 10.605469 2.929687 2.925781 7.675781 2.925781 10.605468 0l42.484376-42.484376c16.871093 16.871094 31.347656 31.347657 53.144531 53.144532l-102.285157 102.289062-53.148437-53.148437 38.144531-38.140625c2.925782-2.929688 2.925782-7.675782 0-10.605469-2.929687-2.925781-7.679687-2.925781-10.605468 0l-38.144532 38.144531-1.648437-1.652344c-6.257813-6.253906-16.441407-6.253906-22.695313 0l-12.550781 12.550782c-6.257813 6.257812-6.257813 16.441406 0 22.699218l1.652344 1.648438c-6.878907 8.070312-16.097657 12.289062-16.097657 23.964844 0 5.070312 1.976563 9.84375 5.566407 13.433594 5.636719 4.652343 9.816406 13.265624 21.132812 13.265624 11.695313 0 15.863281-9.195312 23.964844-16.09375l5.21875 5.21875c-6.875 8.070313-16.09375 12.289063-16.09375 23.960938 0 11.257812 8.585937 15.46875 13.265625 21.136719 3.589844 3.589843 8.359375 5.5625 13.433594 5.5625 11.695312 0 15.863281-9.191407 23.964844-16.09375 1.035156.738281 4.632812 6.34375 12.996093 6.34375 4.109375 0 8.222657-1.5625 11.351563-4.691407l12.546875-12.550781c6.257812-6.257812 6.257812-16.4375 0-22.695312l-1.648438-1.652344 89.363281-89.359375c31.863282 25.859375 50.457032 63.457031 50.457032 104.75 0 42.351562-20.136719 82.175781-53.871094 107.785156-46.675781-34.25-108.535156-30.882812-151.417969 7.710938-10.269531-6.207032-19.332031-13.855469-27.554687-22.453125h33.949218c10.199219 0 18.496094-8.296875 18.496094-18.496094v-11.332031c0-10.199219-8.296875-18.496094-18.496094-18.496094h-119.976562c-10.199219 0-18.5 8.296875-18.5 18.496094v11.332031c0 10.199219 8.300781 18.496094 18.5 18.496094h17.335938c12.414062 23.523437 35.429687 49.230469 64.558593 67.632812-4.546875 11.476563-7.089843 23.851563-7.894531 36.722657h-53.289062c-3.074219 0-5.835938 1.875-6.96875 4.730468l-16.457032 41.453125c-1.953125 4.914063 1.671875 10.265625 6.96875 10.265625h41.398438c4.144531 0 7.5-3.355468 7.5-7.5 0-4.140625-3.355469-7.5-7.5-7.5h-30.355469l10.503906-26.453125h336.316407l10.503906 26.453125h-291.886719c-4.140625 0-7.496094 3.359375-7.496094 7.5 0 4.144532 3.355469 7.5 7.496094 7.5h302.929687c5.289063 0 8.925782-5.34375 6.96875-10.265625zm-291.296875-222.132812c-1.558594 1.5625-4.097656 1.5625-5.652344 0l-7.703124-7.703126c-1.5625-1.558593-1.5625-4.097656-.003907-5.65625l10.53125-10.527343 13.359375 13.355469zm39.789063 39.789062c-1.558594 1.558594-4.097657 1.558594-5.65625 0l-7.703125-7.703125c-1.558594-1.5625-1.558594-4.097656 0-5.65625l10.53125-10.53125 13.359375 13.359375zm47.425781-21.429688-12.546875 12.546876c-1.449219 1.449218 2.386719 3.183593-79.144531-77.65625-.410156-.410157-.410156-1.078126 0-1.484376 12.652344-12.492187 12.921875-13.664062 14.035156-12.550781l6.953125 6.953125c74.699219 74.695313 71.863281 71.035156 70.703125 72.191406zm101.574219-233.863281 6.59375-6.59375c1.410156-1.414062 3.710937-1.414062 5.121093 0l48.027344 48.023438c1.410156 1.410156 1.410156 3.707031 0 5.121093l-6.59375 6.59375c-1.414062 1.414063-3.710937 1.414063-5.121094 0l-48.027343-48.023437c-1.410157-1.414063-1.410157-3.710937 0-5.121094zm-1.183594 25.144531 32.121094 32.125-30.3125 30.3125-32.121094-32.125zm-273.988281 284.910157v-11.332031c0-1.929688 1.570312-3.5 3.5-3.5h119.976562c1.929688 0 3.5 1.570312 3.5 3.5v11.332031c0 1.929687-1.570312 3.5-3.5 3.5h-119.976562c-1.929688 0-3.5-1.570313-3.5-3.5zm91.445312 72.570312c-21.496094-13.945312-39.714844-32.433593-53.285156-54.074219h30.558594c10.417968 13.210938 22.792968 24.4375 36.910156 33.484376-1.488281 1.742187-2.5 3.820312-3.886719 5.640624-2.515625 3.304688-4.871093 6.667969-7.042969 10.226563-.996093 1.636719-2.335937 3.039063-3.253906 4.722656zm.554688 50.28125c3.769531-53.542969 49.609375-98.226562 105.460937-98.226562 57 0 101.785157 45.921875 105.464844 98.226562zm0 0"/></svg>